<?xml version="1.0" encoding="utf-8"?>
<!-- Generator: Adobe Illustrator 25.4.1, SVG Export Plug-In . SVG Version: 6.00 Build 0)  -->
<svg version="1.1" id="Layer_1" xmlns="http://www.w3.org/2000/svg" xmlns:xlink="http://www.w3.org/1999/xlink" x="0px" y="0px"
	 viewBox="0 0 1500 1500" style="enable-background:new 0 0 1500 1500;" xml:space="preserve">
<style type="text/css">
	.st0{fill:url(#SVGID_1_);}
</style>
<g>
	<path d="M489.8,867.7h-39.3V720.1h87.2v32h-47.9v28.2H534v32h-44.2V867.7z"/>
	<path d="M652.4,810.3c0,18.7-5,33.3-15.1,43.8c-10.1,10.5-24.1,15.7-42.2,15.7c-17.4,0-31.2-5.3-41.4-16
		c-10.3-10.7-15.4-25.2-15.4-43.4c0-18.6,5-33.1,15.1-43.5c10.1-10.3,24.2-15.5,42.3-15.5c11.2,0,21.2,2.4,29.8,7.2
		c8.6,4.8,15.3,11.6,19.9,20.5C650,788,652.4,798.4,652.4,810.3z M578.3,810.3c0,9.8,1.3,17.3,3.9,22.5c2.6,5.1,7,7.7,13.2,7.7
		c6.1,0,10.4-2.6,13-7.7c2.5-5.1,3.8-12.6,3.8-22.5c0-9.8-1.3-17.1-3.8-22.1c-2.6-5-6.9-7.5-13.1-7.5c-6.1,0-10.4,2.5-13,7.4
		C579.6,793.1,578.3,800.5,578.3,810.3z"/>
	<path d="M727.4,751.3c3.4,0,6.7,0.3,9.8,0.8l2.2,0.4l-3.5,37.2c-3.2-0.8-7.7-1.2-13.4-1.2c-8.6,0-14.9,2-18.8,5.9
		c-3.9,3.9-5.9,9.6-5.9,17v56.2h-39.5V753.3h29.4l6.2,18.3h1.9c3.3-6.1,7.9-11,13.8-14.7C715.5,753.2,721.4,751.3,727.4,751.3z"/>
	<path d="M855,753.3v19.1l-15.6,5.8c2.2,3.9,3.2,8.4,3.2,13.6c0,12.3-4.3,21.9-13,28.7c-8.6,6.8-21.6,10.2-38.7,10.2
		c-4.2,0-7.6-0.3-10.1-0.8c-0.9,1.8-1.4,3.4-1.4,4.9c0,2,1.6,3.4,4.7,4.5c3.2,1,7.3,1.6,12.4,1.6h19c25.6,0,38.5,10.8,38.5,32.4
		c0,13.9-5.9,24.8-17.8,32.5c-11.9,7.7-28.6,11.6-50,11.6c-16.2,0-28.7-2.7-37.5-8.1c-8.8-5.4-13.2-13.2-13.2-23.4
		c0-13.7,8.5-22.5,25.4-26.4c-3.5-1.5-6.5-3.9-9.1-7.2c-2.6-3.3-3.9-6.6-3.9-9.8c0-3.6,1-6.7,2.9-9.4c2-2.7,6-6,12.2-9.7
		c-5.9-2.6-10.6-6.7-14-12.3c-3.4-5.6-5.1-12.4-5.1-20.4c0-12.4,4.2-22.1,12.7-29c8.5-6.9,20.6-10.3,36.3-10.3
		c2.1,0,5.7,0.2,10.8,0.7c5.1,0.5,8.9,0.9,11.3,1.3H855z M768.8,881.9c0,3.2,1.7,5.8,5.2,7.8c3.5,2,8.2,3,14,3
		c9.6,0,17.2-1.2,23-3.6c5.8-2.4,8.6-5.5,8.6-9.2c0-3-1.8-5.2-5.2-6.4c-3.5-1.2-8.5-1.9-15-1.9h-15.4c-4.2,0-7.8,1-10.8,3
		C770.2,876.6,768.8,879.1,768.8,881.9z M781.2,790.8c0,11.7,4.1,17.6,12.2,17.6c3.8,0,6.7-1.4,8.7-4.3c2.1-2.9,3.1-7.2,3.1-13
		c0-11.8-3.9-17.8-11.8-17.8C785.3,773.2,781.2,779.1,781.2,790.8z"/>
	<path d="M911,869.7c-19,0-33.8-5.1-44.4-15.2c-10.5-10.1-15.8-24.5-15.8-43.3c0-19.3,4.9-34.1,14.6-44.5
		c9.8-10.3,23.7-15.5,41.8-15.5c17.2,0,30.5,4.5,39.9,13.5c9.4,9,14.1,21.9,14.1,38.8v17.6h-70.6c0.3,6.4,2.6,11.4,7,15
		c4.4,3.6,10.4,5.5,18,5.5c6.9,0,13.3-0.7,19.1-2c5.8-1.3,12.1-3.5,18.9-6.7v28.4c-6.2,3.2-12.6,5.3-19.2,6.6
		C928.1,869.1,920.2,869.7,911,869.7z M908.7,778.2c-4.6,0-8.5,1.5-11.7,4.4c-3.1,2.9-5,7.5-5.5,13.8h33.9
		c-0.1-5.5-1.7-9.9-4.7-13.2C917.8,779.8,913.8,778.2,908.7,778.2z"/>
	<path d="M969.4,720.1h51.5c20.1,0,34.9,3,44.7,8.9c9.7,6,14.6,15.2,14.6,27.8c0,8.3-2.1,15.3-6.4,21.2c-4.2,5.9-9.8,9.6-16.8,11.3
		v1c9.2,2.4,15.8,6.5,19.9,12.1c4.1,5.7,6.2,13,6.2,22c0,13.4-5,23.9-15.1,31.6c-10.1,7.7-23.8,11.6-41.1,11.6h-57.4V720.1z
		 M1009.3,776.8h12c5.7,0,10.1-1.2,13.3-3.5c3.1-2.4,4.7-5.9,4.7-10.5c0-8.3-6.3-12.4-18.8-12.4h-11.2V776.8z M1009.3,805.9v31h14
		c12.4,0,18.7-5.2,18.7-15.7c0-4.9-1.7-8.7-5-11.3c-3.3-2.6-8.2-3.9-14.5-3.9H1009.3z"/>
	<path d="M1199.1,810.3c0,18.7-5,33.3-15.1,43.8c-10.1,10.5-24.1,15.7-42.2,15.7c-17.4,0-31.2-5.3-41.4-16
		c-10.3-10.7-15.4-25.2-15.4-43.4c0-18.6,5-33.1,15.1-43.5c10.1-10.3,24.2-15.5,42.3-15.5c11.2,0,21.2,2.4,29.8,7.2
		c8.6,4.8,15.3,11.6,19.9,20.5C1196.7,788,1199.1,798.4,1199.1,810.3z M1125,810.3c0,9.8,1.3,17.3,3.9,22.5c2.6,5.1,7,7.7,13.2,7.7
		c6.1,0,10.4-2.6,13-7.7c2.5-5.1,3.8-12.6,3.8-22.5c0-9.8-1.3-17.1-3.8-22.1c-2.6-5-6.9-7.5-13.1-7.5c-6.1,0-10.4,2.5-13,7.4
		C1126.3,793.1,1125,800.5,1125,810.3z"/>
	<path d="M1261.1,838.5c5.3,0,11.7-1.3,19.1-3.9v28.8c-5.3,2.3-10.4,3.9-15.2,4.9c-4.8,1-10.4,1.5-16.9,1.5
		c-13.3,0-22.8-3.2-28.7-9.7c-5.9-6.5-8.8-16.5-8.8-29.9v-47.1h-13.8v-16.1l17.6-12.4l10.2-24h25.8v22.9h28.1v29.6h-28.1v44.5
		C1250.4,834.8,1253.9,838.5,1261.1,838.5z"/>
	<path d="M1376,832.6c0,12.2-4.2,21.5-12.5,27.8c-8.3,6.3-20.3,9.4-35.9,9.4c-8.5,0-15.8-0.5-22.1-1.4s-12.7-2.6-19.2-5v-31.6
		c6.1,2.7,12.8,4.9,20.1,6.7c7.3,1.8,13.8,2.6,19.5,2.6c8.5,0,12.8-2,12.8-5.9c0-2-1.2-3.8-3.6-5.4c-2.4-1.6-9.3-4.7-20.8-9.2
		c-10.5-4.3-17.8-9.2-22-14.7c-4.2-5.5-6.3-12.4-6.3-20.8c0-10.6,4.1-18.9,12.3-24.8c8.2-5.9,19.8-8.9,34.8-8.9
		c7.5,0,14.6,0.8,21.2,2.5c6.6,1.6,13.5,4.1,20.6,7.2l-10.7,25.4c-5.2-2.4-10.8-4.4-16.7-6c-5.9-1.6-10.6-2.5-14.3-2.5
		c-6.5,0-9.7,1.6-9.7,4.7c0,2,1.1,3.6,3.4,5c2.3,1.4,8.8,4.2,19.5,8.4c8,3.3,14,6.5,17.9,9.7c3.9,3.2,6.8,6.9,8.7,11.2
		C1375.1,821.3,1376,826.5,1376,832.6z"/>
</g>
<linearGradient id="SVGID_1_" gradientUnits="userSpaceOnUse" x1="235.6685" y1="989.0663" x2="235.6685" y2="539.5354">
	<stop  offset="9.413372e-02" style="stop-color:#780000"/>
	<stop  offset="0.8754" style="stop-color:#FF0000"/>
</linearGradient>
<path class="st0" d="M237.1,995.5L81.9,872.4L248.2,546l36.6,180.9l24.6-24.6l80,165.7L237.1,995.5z M140.2,859.7l96.1,76.2
	l95.9-80.3l-36.1-74.8l-39.5,39.5l-27.4-135.4L140.2,859.7z"/>
</svg>
