<svg xmlns="http://www.w3.org/2000/svg" xmlns:xlink="http://www.w3.org/1999/xlink" viewBox="0 0 600 208.41"><defs><style>.cls-1{fill:#fff;}.cls-2{fill:url(#linear-gradient);}</style><linearGradient id="linear-gradient" x1="71.29" y1="205.42" x2="71.29" y2="-3" gradientUnits="userSpaceOnUse"><stop offset="0.09" stop-color="#761113"/><stop offset="0.88" stop-color="#ec2024"/></linearGradient></defs><g id="Layer_2" data-name="Layer 2"><g id="Layer_1-2" data-name="Layer 1"><path class="cls-1" d="M189.12,149.16h-18.2V80.73h40.43V95.57H189.12v13.05h20.5v14.84h-20.5Z"/><path class="cls-1" d="M264.48,122.53q0,13-7,20.28t-19.58,7.28q-12.08,0-19.22-7.44t-7.13-20.12q0-13,7-20.15t19.64-7.19A27.91,27.91,0,0,1,252,98.52a22.66,22.66,0,0,1,9.25,9.52A30.72,30.72,0,0,1,264.48,122.53Zm-34.35,0q0,6.82,1.82,10.41a6.34,6.34,0,0,0,6.13,3.58,6.17,6.17,0,0,0,6-3.58q1.76-3.58,1.75-10.41t-1.78-10.25a7,7,0,0,0-12.12,0Q230.14,115.7,230.13,122.53Z"/><path class="cls-1" d="M299.26,95.19a26.39,26.39,0,0,1,4.54.38l1,.18L303.19,113a27.17,27.17,0,0,0-6.22-.56c-4,0-6.9.92-8.71,2.74s-2.71,4.45-2.71,7.89v26.07h-18.3v-53h13.62l2.85,8.47h.89A18.31,18.31,0,0,1,291,97.79,15.3,15.3,0,0,1,299.26,95.19Z"/><path class="cls-1" d="M358.42,96.13V105l-7.25,2.67a12.87,12.87,0,0,1,1.5,6.32q0,8.57-6,13.29T328.7,132a23.11,23.11,0,0,1-4.68-.38,5,5,0,0,0-.65,2.3c0,.9.73,1.6,2.2,2.08a18.84,18.84,0,0,0,5.75.73h8.8q17.83,0,17.83,15a17,17,0,0,1-8.26,15.07q-8.25,5.38-23.19,5.38-11.28,0-17.38-3.77A12,12,0,0,1,303,157.58q0-9.51,11.79-12.26a10.67,10.67,0,0,1-4.23-3.33,7.12,7.12,0,0,1-.45-8.91,20.16,20.16,0,0,1,5.67-4.52,14.11,14.11,0,0,1-6.49-5.71,17.91,17.91,0,0,1-2.36-9.45q0-8.66,5.9-13.43t16.85-4.78c1,0,2.63.11,5,.33s4.12.42,5.25.61Zm-40,59.62a4.1,4.1,0,0,0,2.44,3.63,13.16,13.16,0,0,0,6.5,1.38A28.24,28.24,0,0,0,338,159.1q4-1.66,4-4.28,0-2.12-2.43-3a21.74,21.74,0,0,0-7-.87h-7.16a8.68,8.68,0,0,0-5,1.38A4,4,0,0,0,318.45,155.75Zm5.76-42.26q0,8.15,5.66,8.15a4.65,4.65,0,0,0,4.05-2q1.43-2,1.43-6,0-8.25-5.48-8.24Q324.22,105.35,324.21,113.49Z"/><path class="cls-1" d="M384.4,150.09q-13.25,0-20.56-7T356.51,123q0-13.42,6.79-20.61t19.37-7.19q12,0,18.51,6.25t6.53,18v8.14H375a9.06,9.06,0,0,0,3.25,7c2,1.69,4.83,2.53,8.35,2.53a40.23,40.23,0,0,0,8.87-.91,44.4,44.4,0,0,0,8.78-3.11v13.15a32.51,32.51,0,0,1-8.89,3A61.77,61.77,0,0,1,384.4,150.09Zm-1.07-42.45a7.61,7.61,0,0,0-5.41,2c-1.45,1.36-2.3,3.48-2.55,6.39H391.1a9.13,9.13,0,0,0-2.18-6.13A7.18,7.18,0,0,0,383.33,107.64Z"/><path class="cls-1" d="M411.46,80.73h23.87q13.95,0,20.71,4.14t6.76,12.9a16.37,16.37,0,0,1-2.94,9.83,13.2,13.2,0,0,1-7.77,5.24v.47q6.36,1.68,9.22,5.61t2.85,10.2q0,9.31-7,14.68t-19.07,5.36H411.46ZM430,107h5.57a10.07,10.07,0,0,0,6.15-1.64,5.72,5.72,0,0,0,2.18-4.87q0-5.76-8.71-5.76H430Zm0,13.52v14.37h6.51q8.66,0,8.65-7.3a6.27,6.27,0,0,0-2.31-5.24q-2.32-1.83-6.72-1.83Z"/><path class="cls-1" d="M517.94,122.53q0,13-7,20.28t-19.59,7.28q-12.08,0-19.21-7.44T465,122.53q0-13,7-20.15t19.63-7.19a28,28,0,0,1,13.81,3.33,22.69,22.69,0,0,1,9.24,9.52A30.72,30.72,0,0,1,517.94,122.53Zm-34.35,0q0,6.82,1.83,10.41a6.33,6.33,0,0,0,6.13,3.58,6.15,6.15,0,0,0,6-3.58q1.76-3.58,1.76-10.41t-1.78-10.25a7,7,0,0,0-12.12,0Q483.59,115.7,483.59,122.53Z"/><path class="cls-1" d="M546.69,135.63a27.14,27.14,0,0,0,8.84-1.83v13.34a35.8,35.8,0,0,1-7,2.27,40,40,0,0,1-7.84.68q-9.23,0-13.29-4.52t-4.07-13.87V109.84h-6.41V102.4L525,96.64l4.73-11.13h12V96.13h13v13.71h-13v20.64Q541.73,135.63,546.69,135.63Z"/><path class="cls-1" d="M600,132.87q0,8.52-5.8,12.87t-16.66,4.35a72.47,72.47,0,0,1-10.25-.63,43,43,0,0,1-8.9-2.32V132.49a54.7,54.7,0,0,0,9.34,3.09,39.44,39.44,0,0,0,9.06,1.22c4,0,5.94-.9,5.94-2.72a3.06,3.06,0,0,0-1.66-2.5,76.29,76.29,0,0,0-9.67-4.28q-7.29-3-10.2-6.81a15.53,15.53,0,0,1-2.9-9.67A13.39,13.39,0,0,1,564,99.31q5.72-4.11,16.15-4.12A41,41,0,0,1,590,96.34a58,58,0,0,1,9.57,3.35l-5,11.79a55.9,55.9,0,0,0-7.72-2.78,25.52,25.52,0,0,0-6.65-1.15c-3,0-4.49.73-4.49,2.2a2.73,2.73,0,0,0,1.56,2.31,83.81,83.81,0,0,0,9.06,3.91,34.87,34.87,0,0,1,8.31,4.5,13.47,13.47,0,0,1,4,5.17A18.12,18.12,0,0,1,600,132.87Z"/><path class="cls-2" d="M72,208.41,0,151.35,77.11,0l17,83.85,11.4-11.4,37.09,76.84ZM27,145.46,71.6,180.81l44.46-37.23L99.32,108.89,81,127.18,68.31,64.41Z"/></g></g></svg>